<mxfile host="app.diagrams.net" modified="2023-09-28T11:38:54.346Z" agent="Mozilla/5.0 (Macintosh; Intel Mac OS X 10_15_7) AppleWebKit/537.36 (KHTML, like Gecko) Chrome/116.0.0.0 Safari/537.36" etag="vIR_CWdnSZLW13Gy7Fx0" version="21.3.4" type="device">
  <diagram name="Страница 1" id="tgT_ULOWopTS9hcM4FLb">
    <mxGraphModel dx="1026" dy="575" grid="1" gridSize="10" guides="1" tooltips="1" connect="1" arrows="1" fold="1" page="1" pageScale="1" pageWidth="827" pageHeight="1169" math="0" shadow="0">
      <root>
        <mxCell id="0" />
        <mxCell id="1" parent="0" />
        <mxCell id="28H5pUIg-kThpHASteGb-4" value="" style="edgeStyle=orthogonalEdgeStyle;rounded=0;orthogonalLoop=1;jettySize=auto;html=1;" edge="1" parent="1" source="28H5pUIg-kThpHASteGb-2" target="28H5pUIg-kThpHASteGb-3">
          <mxGeometry relative="1" as="geometry" />
        </mxCell>
        <mxCell id="28H5pUIg-kThpHASteGb-2" value="public void EnQueue&lt;br&gt;(char inf)" style="strokeWidth=2;html=1;shape=mxgraph.flowchart.terminator;whiteSpace=wrap;" vertex="1" parent="1">
          <mxGeometry x="330" y="70" width="120" height="50" as="geometry" />
        </mxCell>
        <mxCell id="28H5pUIg-kThpHASteGb-6" value="" style="edgeStyle=orthogonalEdgeStyle;rounded=0;orthogonalLoop=1;jettySize=auto;html=1;" edge="1" parent="1" source="28H5pUIg-kThpHASteGb-3" target="28H5pUIg-kThpHASteGb-5">
          <mxGeometry relative="1" as="geometry" />
        </mxCell>
        <mxCell id="28H5pUIg-kThpHASteGb-3" value="Elem temp = new Elem(inf);" style="whiteSpace=wrap;html=1;strokeWidth=2;" vertex="1" parent="1">
          <mxGeometry x="330" y="140" width="120" height="40" as="geometry" />
        </mxCell>
        <mxCell id="28H5pUIg-kThpHASteGb-8" value="Так" style="edgeStyle=orthogonalEdgeStyle;rounded=0;orthogonalLoop=1;jettySize=auto;html=1;" edge="1" parent="1" source="28H5pUIg-kThpHASteGb-5" target="28H5pUIg-kThpHASteGb-7">
          <mxGeometry x="0.2" relative="1" as="geometry">
            <mxPoint as="offset" />
          </mxGeometry>
        </mxCell>
        <mxCell id="28H5pUIg-kThpHASteGb-10" value="Ні" style="edgeStyle=orthogonalEdgeStyle;rounded=0;orthogonalLoop=1;jettySize=auto;html=1;" edge="1" parent="1" source="28H5pUIg-kThpHASteGb-5" target="28H5pUIg-kThpHASteGb-9">
          <mxGeometry relative="1" as="geometry">
            <Array as="points">
              <mxPoint x="460" y="225" />
              <mxPoint x="460" y="360" />
            </Array>
          </mxGeometry>
        </mxCell>
        <mxCell id="28H5pUIg-kThpHASteGb-5" value="_Tail != null" style="strokeWidth=2;html=1;shape=mxgraph.flowchart.decision;whiteSpace=wrap;" vertex="1" parent="1">
          <mxGeometry x="340" y="200" width="100" height="50" as="geometry" />
        </mxCell>
        <mxCell id="28H5pUIg-kThpHASteGb-7" value="_Tail._R = temp;" style="whiteSpace=wrap;html=1;strokeWidth=2;" vertex="1" parent="1">
          <mxGeometry x="340" y="280" width="100" height="40" as="geometry" />
        </mxCell>
        <mxCell id="28H5pUIg-kThpHASteGb-12" value="" style="edgeStyle=orthogonalEdgeStyle;rounded=0;orthogonalLoop=1;jettySize=auto;html=1;" edge="1" parent="1" source="28H5pUIg-kThpHASteGb-9" target="28H5pUIg-kThpHASteGb-11">
          <mxGeometry relative="1" as="geometry" />
        </mxCell>
        <mxCell id="28H5pUIg-kThpHASteGb-9" value="temp._L = _Tail;&lt;br&gt;_Tail = temp;" style="whiteSpace=wrap;html=1;strokeWidth=2;" vertex="1" parent="1">
          <mxGeometry x="340" y="340" width="100" height="50" as="geometry" />
        </mxCell>
        <mxCell id="28H5pUIg-kThpHASteGb-14" value="Так" style="edgeStyle=orthogonalEdgeStyle;rounded=0;orthogonalLoop=1;jettySize=auto;html=1;" edge="1" parent="1" source="28H5pUIg-kThpHASteGb-11" target="28H5pUIg-kThpHASteGb-13">
          <mxGeometry relative="1" as="geometry" />
        </mxCell>
        <mxCell id="28H5pUIg-kThpHASteGb-17" value="Ні" style="edgeStyle=orthogonalEdgeStyle;rounded=0;orthogonalLoop=1;jettySize=auto;html=1;exitX=1;exitY=0.5;exitDx=0;exitDy=0;exitPerimeter=0;" edge="1" parent="1" source="28H5pUIg-kThpHASteGb-11" target="28H5pUIg-kThpHASteGb-15">
          <mxGeometry relative="1" as="geometry">
            <Array as="points">
              <mxPoint x="460" y="435" />
              <mxPoint x="460" y="570" />
            </Array>
          </mxGeometry>
        </mxCell>
        <mxCell id="28H5pUIg-kThpHASteGb-11" value="_Head == null" style="strokeWidth=2;html=1;shape=mxgraph.flowchart.decision;whiteSpace=wrap;" vertex="1" parent="1">
          <mxGeometry x="340" y="410" width="100" height="50" as="geometry" />
        </mxCell>
        <mxCell id="28H5pUIg-kThpHASteGb-16" value="" style="edgeStyle=orthogonalEdgeStyle;rounded=0;orthogonalLoop=1;jettySize=auto;html=1;" edge="1" parent="1" source="28H5pUIg-kThpHASteGb-13" target="28H5pUIg-kThpHASteGb-15">
          <mxGeometry relative="1" as="geometry" />
        </mxCell>
        <mxCell id="28H5pUIg-kThpHASteGb-13" value="_Head = _Tail;" style="whiteSpace=wrap;html=1;strokeWidth=2;" vertex="1" parent="1">
          <mxGeometry x="345" y="490" width="90" height="35" as="geometry" />
        </mxCell>
        <mxCell id="28H5pUIg-kThpHASteGb-15" value="return" style="strokeWidth=2;html=1;shape=mxgraph.flowchart.terminator;whiteSpace=wrap;" vertex="1" parent="1">
          <mxGeometry x="355" y="550" width="70" height="40" as="geometry" />
        </mxCell>
      </root>
    </mxGraphModel>
  </diagram>
</mxfile>
